<?xml version="1.0" standalone="no"?>
<!DOCTYPE svg PUBLIC "-//W3C//DTD SVG 20010904//EN"
 "http://www.w3.org/TR/2001/REC-SVG-20010904/DTD/svg10.dtd">
<svg version="1.0" xmlns="http://www.w3.org/2000/svg"
 width="300.000000pt" height="272.000000pt" viewBox="0 0 300.000000 272.000000"
 preserveAspectRatio="xMidYMid meet">
<metadata>
Created by potrace 1.10, written by Peter Selinger 2001-2011
</metadata>
<g transform="translate(0.000000,272.000000) scale(0.100000,-0.100000)"
fill="#000000" stroke="none">
<path d="M689 2460 c-25 -4 -60 -15 -78 -24 -48 -25 -110 -92 -135 -145 -21
-46 -21 -49 -21 -809 l0 -763 160 0 160 0 0 720 0 721 49 0 c166 0 227 202 86
284 -37 22 -147 30 -221 16z m209 -56 c25 -17 52 -64 52 -89 0 -60 -63 -115
-132 -115 -23 0 -42 -8 -56 -23 l-22 -24 -6 -599 c-3 -329 -5 -643 -5 -696 l1
-98 -115 0 -115 0 0 742 c0 733 0 742 21 785 24 49 81 101 130 119 52 19 219
18 247 -2z"/>
<path d="M1030 2464 c0 -4 6 -15 14 -23 42 -49 48 -164 12 -235 l-23 -46 638
2 c626 3 638 3 665 24 49 36 68 70 68 121 -1 61 -24 105 -71 135 l-38 23 -632
3 c-348 1 -633 -1 -633 -4z m1273 -55 c64 -33 77 -116 28 -171 l-29 -33 -594
-3 -593 -2 0 110 0 110 583 0 c410 0 590 -3 605 -11z"/>
<path d="M870 1180 l0 -890 720 0 720 0 0 292 0 292 -67 -66 -68 -67 -180 -21
c-99 -11 -193 -23 -209 -26 -27 -6 -28 -5 -22 22 3 16 15 110 26 209 l20 180
250 250 250 250 0 233 0 232 -720 0 -720 0 0 -890z m1400 637 l0 -191 -239
-240 c-131 -133 -243 -251 -250 -263 -6 -11 -21 -111 -33 -221 -31 -273 -46
-259 259 -222 158 18 206 32 232 64 8 9 17 16 22 16 5 0 9 -94 9 -209 0 -181
-2 -210 -16 -215 -24 -9 -1317 -7 -1332 2 -10 7 -12 182 -10 843 l3 834 665 5
c372 3 671 1 678 -4 9 -6 12 -58 12 -199z"/>
<path d="M1104 1816 c-42 -42 -43 -66 -5 -108 l29 -33 409 -3 c224 -2 423 0
442 3 74 14 104 87 57 142 l-24 28 -437 3 -436 3 -35 -35z m910 -22 c22 -22
20 -50 -6 -68 -19 -14 -78 -16 -438 -16 -360 0 -419 2 -438 16 -26 18 -29 59
-4 73 11 7 173 11 444 11 375 0 428 -2 442 -16z"/>
<path d="M1135 1551 c-28 -12 -52 -41 -60 -72 -5 -21 0 -34 23 -60 l30 -34
440 0 440 0 26 24 c36 34 36 88 0 122 l-26 24 -426 2 c-235 1 -436 -2 -447 -6z
m877 -48 c24 -22 23 -49 -4 -67 -19 -14 -78 -16 -441 -16 -269 0 -425 4 -438
10 -25 14 -26 65 -1 79 11 7 172 11 441 11 381 0 426 -2 443 -17z"/>
<path d="M1134 1260 c-28 -11 -64 -58 -64 -82 0 -11 15 -35 34 -54 l34 -34
259 0 c283 0 287 1 318 60 17 34 9 64 -25 95 -21 19 -38 20 -279 22 -141 1
-266 -2 -277 -7z m538 -47 c22 -20 23 -46 2 -67 -13 -14 -52 -16 -270 -16
-157 0 -263 4 -275 10 -25 14 -26 65 -1 79 10 6 117 11 271 11 223 0 257 -2
273 -17z"/>
<path d="M2595 1744 c-16 -8 -34 -20 -40 -25 -6 -6 32 -51 105 -124 63 -63
118 -115 122 -115 5 0 17 15 28 33 21 34 27 108 11 149 -32 82 -146 124 -226
82z m133 -38 c13 -7 32 -26 43 -42 21 -32 26 -99 8 -110 -15 -9 -164 140 -155
155 10 15 75 13 104 -3z"/>
<path d="M2215 1380 l-260 -260 43 -42 42 -43 262 262 263 263 -40 40 c-21 22
-42 40 -45 40 -3 0 -122 -117 -265 -260z m282 184 c2 -5 -100 -112 -226 -238
-208 -208 -251 -243 -251 -204 0 16 451 459 463 455 6 -2 12 -7 14 -13z"/>
<path d="M2365 1230 l-260 -260 43 -42 42 -43 262 262 263 263 -40 40 c-21 22
-42 40 -45 40 -3 0 -122 -117 -265 -260z m283 181 c6 -18 -442 -465 -460 -459
-7 3 -13 10 -13 17 0 16 447 462 459 458 5 -2 12 -9 14 -16z"/>
<path d="M1883 923 c-6 -65 -10 -119 -10 -120 2 -1 241 24 243 26 2 2 -212
211 -217 211 -3 0 -10 -53 -16 -117z m112 -30 c20 -31 9 -43 -42 -43 -29 0
-33 3 -33 28 0 15 3 37 6 49 6 21 8 21 29 7 13 -9 31 -27 40 -41z"/>
</g>
</svg>
